<?xml version="1.0" standalone="no"?>
<!DOCTYPE svg PUBLIC "-//W3C//DTD SVG 20010904//EN"
 "http://www.w3.org/TR/2001/REC-SVG-20010904/DTD/svg10.dtd">
<svg version="1.0" xmlns="http://www.w3.org/2000/svg"
 width="300.000000pt" height="300.000000pt" viewBox="0 0 300.000000 300.000000"
 preserveAspectRatio="xMidYMid meet">
<metadata>
Created by potrace 1.10, written by Peter Selinger 2001-2011
</metadata>
<g transform="translate(0.000000,300.000000) scale(0.100000,-0.100000)"
fill="#000000" stroke="none">
<path d="M1367 2225 c-408 -82 -674 -472 -592 -870 34 -162 102 -282 227 -400
92 -87 212 -151 336 -180 111 -26 291 -17 396 19 198 70 342 198 431 381 51
106 75 205 75 309 l0 76 -65 0 -65 0 0 -73 c0 -89 -20 -169 -66 -267 -27 -58
-53 -92 -117 -155 -138 -135 -259 -181 -457 -173 -100 5 -125 9 -190 36 -256
107 -404 339 -387 606 16 249 173 455 412 542 l65 24 0 -43 c0 -42 0 -42 -52
-61 -300 -106 -434 -455 -288 -746 37 -73 111 -155 183 -201 202 -131 480
-106 651 58 119 114 172 246 167 421 l-1 32 -265 0 -265 0 0 -66 0 -65 201 3
200 3 -6 -35 c-11 -56 -64 -146 -115 -194 -164 -154 -407 -150 -565 8 -28 28
-64 78 -81 111 -27 55 -29 69 -29 170 0 99 3 116 27 168 57 122 190 221 314
234 l54 6 0 168 0 169 -32 -1 c-18 0 -64 -7 -101 -14z m88 -159 l0 -119 -77
-24 c-143 -43 -255 -155 -299 -296 -17 -54 -21 -86 -17 -155 5 -111 40 -191
122 -280 171 -184 453 -187 631 -5 89 90 138 221 100 263 -17 18 -31 20 -185
20 -139 0 -170 3 -180 15 -26 31 3 35 221 33 l214 -3 3 -49 c7 -109 -71 -268
-169 -346 -99 -78 -194 -112 -319 -112 -209 0 -376 113 -460 312 -34 82 -40
224 -12 317 46 149 149 260 295 319 63 25 91 63 83 110 -4 20 -17 41 -31 50
-23 15 -29 15 -78 -1 -132 -42 -253 -136 -336 -260 -244 -365 -64 -852 364
-985 89 -28 240 -30 335 -5 155 40 319 163 398 297 46 78 82 187 89 268 7 78
14 96 37 87 23 -9 21 -105 -5 -197 -54 -197 -184 -357 -360 -444 -108 -54
-200 -76 -316 -76 -386 -1 -702 310 -703 693 0 106 25 211 77 317 85 175 262
319 448 364 33 8 76 14 95 13 l35 -2 0 -119z"/>
</g>
</svg>
